<?xml version="1.0" encoding="UTF-8" standalone="no"?>
<svg
   xmlns:dc="http://purl.org/dc/elements/1.1/"
   xmlns:cc="http://creativecommons.org/ns#"
   xmlns:rdf="http://www.w3.org/1999/02/22-rdf-syntax-ns#"
   xmlns:svg="http://www.w3.org/2000/svg"
   xmlns="http://www.w3.org/2000/svg"
   viewBox="0 0 408 110.4"
   height="110.4"
   width="408"
   xml:space="preserve"
   id="svg2"
   version="1.1"><metadata
     id="metadata8"><rdf:RDF><cc:Work
         rdf:about=""><dc:format>image/svg+xml</dc:format><dc:type
           rdf:resource="http://purl.org/dc/dcmitype/StillImage" /></cc:Work></rdf:RDF></metadata><defs
     id="defs6" /><g
     transform="matrix(1.3333333,0,0,-1.3333333,0,110.4)"
     id="g10"><g
       transform="scale(0.1)"
       id="g12"><path
         id="path14"
         style="fill:rgba(25, 55, 77, 0.9);fill-opacity:1;fill-rule:nonzero;stroke:none"
         d="m 948.516,428.82 h 135.544 c -9.04,-52.09 -45.19,-98.863 -111.626,-98.863 -73.883,0 -129.161,57.402 -129.161,136.598 0,79.726 55.278,136.066 129.161,136.066 41.456,0 77.066,-20.726 97.266,-47.828 l 43.05,24.977 c -29.76,39.863 -73.88,70.156 -140.316,70.156 -101.516,0 -183.911,-72.813 -183.911,-183.371 0,-110.555 82.395,-183.903 179.661,-183.903 110.556,0 173.796,77.598 173.796,192.938 H 948.516 v -46.77" /><path
         id="path16"
         style="fill:rgba(25, 55, 77, 0.9);fill-opacity:1;fill-rule:nonzero;stroke:none"
         d="m 1446.04,336.332 h -184.97 v 110.563 h 181.25 v 46.769 h -181.25 v 103.645 h 184.97 v 46.773 H 1207.92 V 289.559 h 238.12 v 46.773" /><path
         id="path18"
         style="fill:rgba(25, 55, 77, 0.9);fill-opacity:1;fill-rule:nonzero;stroke:none"
         d="m 1662.92,498.977 c -44.11,11.164 -82.38,21.261 -82.38,53.152 0,29.766 27.1,49.965 66.44,49.965 38.26,0 75.47,-12.758 102.57,-41.457 l 30.83,39.328 c -31.35,31.894 -74.41,49.433 -129.15,49.433 -73.88,0 -125.44,-42.523 -125.44,-100.988 0,-72.285 65.91,-88.762 122.78,-103.644 45.18,-11.696 85.57,-22.328 85.57,-59.536 0,-25.507 -20.2,-54.746 -77.6,-54.746 -49.43,0 -87.7,23.395 -111.62,49.969 l -30.3,-40.93 c 30.3,-33.484 76.54,-56.343 139.8,-56.343 95.67,0 133.94,51.558 133.94,106.836 0,75.476 -67.5,93.55 -125.44,108.961" /><path
         id="path20"
         style="fill:rgba(25, 55, 77, 0.9);fill-opacity:1;fill-rule:nonzero;stroke:none"
         d="m 2001.52,289.559 v 307.75 h 109.5 v 46.773 h -272.68 v -46.773 h 110.03 v -307.75 h 53.15" /><path
         id="path22"
         style="fill:rgba(25, 55, 77, 0.9);fill-opacity:1;fill-rule:nonzero;stroke:none"
         d="m 2205.12,410.211 71.22,187.633 71.75,-187.633 z m 245.56,-120.652 -140.85,354.523 h -66.44 L 2102.53,289.559 H 2161 l 28.7,73.347 h 173.81 l 28.7,-73.347 h 58.47" /><path
         id="path24"
         style="fill:rgba(25, 55, 77, 0.9);fill-opacity:1;fill-rule:nonzero;stroke:none"
         d="m 2723.36,336.332 h -161.05 v 307.75 h -53.15 V 289.559 h 214.2 v 46.773" /><path
         id="path26"
         style="fill:rgba(25, 55, 77, 0.9);fill-opacity:1;fill-rule:nonzero;stroke:none"
         d="m 2697.33,644.082 v -46.773 h 110.03 v -307.75 h 53.15 v 307.75 H 2970 v 46.773 h -272.67" /><path
         id="path28"
         style="fill:rgba(25, 55, 77, 0.9);fill-opacity:1;fill-rule:nonzero;stroke:none"
         d="m 789.438,99.6445 h 23.484 v 45.6525 h 53.43 v 20.676 h -53.43 v 23.32 h 54.59 v 20.676 H 789.438 V 99.6445" /><path
         id="path30"
         style="fill:rgba(25, 55, 77, 0.9);fill-opacity:1;fill-rule:nonzero;stroke:none"
         d="m 935.461,99.6445 h 23.488 V 209.969 H 935.461 V 99.6445" /><path
         id="path32"
         style="fill:rgba(25, 55, 77, 0.9);fill-opacity:1;fill-rule:nonzero;stroke:none"
         d="m 1107.63,140.668 -51.11,69.301 h -24.15 V 99.6445 h 23.48 v 71.9535 l 52.61,-71.9535 h 22.65 V 209.969 h -23.48 v -69.301" /><path
         id="path34"
         style="fill:rgba(25, 55, 77, 0.9);fill-opacity:1;fill-rule:nonzero;stroke:none"
         d="m 1232.97,139.012 17.2,47.468 17.2,-47.468 z m 2.48,70.957 -42.68,-110.3245 h 26.8 l 6.95,18.6915 h 47.3 l 6.79,-18.6915 h 26.79 l -42.51,110.3245 h -29.44" /><path
         id="path36"
         style="fill:rgba(25, 55, 77, 0.9);fill-opacity:1;fill-rule:nonzero;stroke:none"
         d="m 1444.49,140.668 -51.12,69.301 h -24.14 V 99.6445 h 23.49 v 71.9535 l 52.59,-71.9535 h 22.66 V 209.969 h -23.48 v -69.301" /><path
         id="path38"
         style="fill:rgba(25, 55, 77, 0.9);fill-opacity:1;fill-rule:nonzero;stroke:none"
         d="m 1594.81,190.945 c 11.41,0 21.33,-7.109 25.97,-16.039 l 20.17,9.918 c -7.77,13.735 -21.83,26.961 -46.14,26.961 -33.08,0 -58.72,-23.148 -58.72,-57.062 0,-33.907 25.64,-57.0667 58.72,-57.0667 24.31,0 38.21,13.4027 46.14,27.1287 l -20.17,9.762 c -4.64,-9.102 -14.56,-16.051 -25.97,-16.051 -20.02,0 -34.57,15.387 -34.57,36.227 0,20.84 14.55,36.222 34.57,36.222" /><path
         id="path40"
         style="fill:rgba(25, 55, 77, 0.9);fill-opacity:1;fill-rule:nonzero;stroke:none"
         d="m 1706.59,99.6445 h 23.49 V 209.969 h -23.49 V 99.6445" /><path
         id="path42"
         style="fill:rgba(25, 55, 77, 0.9);fill-opacity:1;fill-rule:nonzero;stroke:none"
         d="m 1831.95,139.012 17.2,47.468 17.2,-47.468 z m 2.48,70.957 -42.68,-110.3245 h 26.8 l 6.94,18.6915 h 47.31 l 6.78,-18.6915 h 26.8 l -42.51,110.3245 h -29.44" /><path
         id="path44"
         style="fill:rgba(25, 55, 77, 0.9);fill-opacity:1;fill-rule:nonzero;stroke:none"
         d="M 1991.69,209.969 H 1968.2 V 99.6445 h 70.13 V 120.32 h -46.64 v 89.649" /><path
         id="path46"
         style="fill:rgba(25, 55, 77, 0.9);fill-opacity:1;fill-rule:nonzero;stroke:none"
         d="m 2248.02,140.172 h 29.12 v -13.234 c -4.47,-4.137 -13.73,-8.442 -23.49,-8.442 -20.02,0 -34.57,15.387 -34.57,36.227 0,20.84 14.55,36.222 34.57,36.222 11.74,0 21.17,-6.613 26.13,-14.386 l 19.52,10.586 c -8.27,13.066 -22.66,24.64 -45.65,24.64 -32.26,0 -58.72,-22.16 -58.72,-57.062 0,-34.735 26.46,-57.2269 58.72,-57.2269 20.01,0 35.73,8.2659 46.97,20.8399 v 42.344 h -52.6 v -20.508" /><path
         id="path48"
         style="fill:rgba(25, 55, 77, 0.9);fill-opacity:1;fill-rule:nonzero;stroke:none"
         d="m 2419.01,159.52 h -24.65 v 29.773 h 24.65 c 9.43,0 16.55,-5.625 16.55,-14.883 0,-9.265 -7.12,-14.89 -16.55,-14.89 z m 40.53,14.89 c 0,20.508 -14.06,35.559 -37.05,35.559 h -51.61 V 99.6445 h 23.48 v 39.1995 h 17.21 l 21.67,-39.1995 h 26.96 l -24.81,42.0115 c 11.9,2.813 24.15,13.235 24.15,32.754" /><path
         id="path50"
         style="fill:rgba(25, 55, 77, 0.9);fill-opacity:1;fill-rule:nonzero;stroke:none"
         d="m 2782.5,144.469 c 0,-15.383 -8.76,-25.973 -25.8,-25.973 -17.03,0 -25.97,10.59 -25.97,25.973 v 65.5 h -23.81 v -66.328 c 0,-27.129 16.21,-45.9847 49.78,-45.9847 33.58,0 49.79,18.6957 49.79,46.1487 v 66.164 h -23.99 v -65.5" /><path
         id="path52"
         style="fill:rgba(25, 55, 77, 0.9);fill-opacity:1;fill-rule:nonzero;stroke:none"
         d="m 2928.2,159.52 h -24.98 v 29.773 h 24.98 c 9.26,0 16.21,-5.625 16.21,-14.883 0,-9.101 -6.95,-14.89 -16.21,-14.89 z m 3.14,50.449 h -51.61 V 99.6445 h 23.49 v 39.1995 h 28.12 c 23.82,0 37.05,16.375 37.05,35.566 0,19.348 -13.07,35.559 -37.05,35.559" /><path
         id="path54"
         style="fill:rgba(25, 55, 77, 0.9);fill-opacity:1;fill-rule:nonzero;stroke:none"
         d="m 713.996,427.785 c -0.301,14.465 -1.527,28.699 -3.734,42.613 H 631.523 609.395 557.414 452.602 366.449 v -105.054 -5.422 h 42.617 49.118 55.668 l 23.515,0.004 15.988,-0.004 h 0.012 c -0.054,-0.145 -0.117,-0.281 -0.176,-0.422 -0.007,-0.016 -0.011,-0.023 -0.019,-0.039 -0.527,-1.293 -1.067,-2.578 -1.625,-3.856 -0.258,-0.585 -0.527,-1.164 -0.789,-1.746 -0.985,-2.175 -2.008,-4.32 -3.082,-6.441 -0.336,-0.664 -0.672,-1.32 -1.016,-1.977 -0.629,-1.203 -1.262,-2.398 -1.922,-3.582 -0.363,-0.66 -0.75,-1.308 -1.125,-1.961 -1.082,-1.886 -2.195,-3.753 -3.355,-5.593 -0.5,-0.793 -1.004,-1.582 -1.516,-2.364 -0.816,-1.253 -1.648,-2.496 -2.5,-3.722 -0.844,-1.223 -1.699,-2.434 -2.578,-3.629 -0.652,-0.883 -1.312,-1.758 -1.98,-2.629 -0.766,-1 -1.547,-1.988 -2.336,-2.973 -0.817,-1.015 -1.641,-2.027 -2.485,-3.019 -0.992,-1.18 -1.996,-2.344 -3.023,-3.492 -0.617,-0.696 -1.242,-1.383 -1.871,-2.067 -1.262,-1.367 -2.547,-2.719 -3.856,-4.043 -0.566,-0.57 -1.14,-1.129 -1.718,-1.695 -1.149,-1.125 -2.309,-2.234 -3.489,-3.324 -0.59,-0.547 -1.176,-1.09 -1.769,-1.625 -1.422,-1.282 -2.867,-2.543 -4.332,-3.77 -0.086,-0.07 -0.176,-0.137 -0.262,-0.211 -0.988,-0.824 -2.004,-1.613 -3.016,-2.414 -0.914,-0.726 -1.824,-1.461 -2.757,-2.168 -1.02,-0.773 -2.063,-1.523 -3.098,-2.277 -0.961,-0.692 -1.918,-1.379 -2.887,-2.051 -1.047,-0.723 -2.113,-1.434 -3.176,-2.133 -1.004,-0.656 -2.011,-1.304 -3.027,-1.937 -1.066,-0.668 -2.141,-1.328 -3.227,-1.973 -1.054,-0.625 -2.125,-1.234 -3.203,-1.84 -1.074,-0.605 -2.144,-1.211 -3.234,-1.793 -1.137,-0.605 -2.293,-1.183 -3.445,-1.761 -1.059,-0.536 -2.11,-1.079 -3.176,-1.586 -1.336,-0.637 -2.699,-1.235 -4.059,-1.836 -0.91,-0.403 -1.808,-0.828 -2.726,-1.215 -2.227,-0.942 -4.485,-1.824 -6.758,-2.664 -0.899,-0.332 -1.813,-0.625 -2.715,-0.942 -1.476,-0.515 -2.949,-1.031 -4.445,-1.504 -1.02,-0.324 -2.051,-0.613 -3.082,-0.914 -1.407,-0.414 -2.813,-0.828 -4.227,-1.203 -1.074,-0.285 -2.152,-0.543 -3.23,-0.804 -1.407,-0.344 -2.825,-0.676 -4.242,-0.981 -1.09,-0.234 -2.184,-0.457 -3.282,-0.668 -1.449,-0.281 -2.906,-0.539 -4.371,-0.781 -1.082,-0.18 -2.16,-0.356 -3.25,-0.512 -1.527,-0.222 -3.066,-0.41 -4.609,-0.586 -1.039,-0.121 -2.071,-0.25 -3.117,-0.347 -1.707,-0.168 -3.422,-0.282 -5.145,-0.391 -0.894,-0.059 -1.781,-0.141 -2.68,-0.184 -2.554,-0.121 -5.121,-0.191 -7.703,-0.195 -0.07,0 -0.136,-0.004 -0.207,-0.004 -6.176,0 -12.265,0.36 -18.265,1.027 -2.668,0.297 -5.301,0.696 -7.926,1.125 -0.699,0.118 -1.399,0.239 -2.098,0.36 -2.535,0.445 -5.051,0.941 -7.547,1.504 -0.054,0.015 -0.109,0.019 -0.164,0.031 v -13.508 -33.527 -25.875 -29.36 -48.683 c 11.703,-1.328 23.578,-2.082 35.633,-2.082 2.344,0 4.652,0.125 6.984,0.176 169.122,3.726 305.098,141.89 305.098,311.906 0,2.215 -0.121,4.406 -0.168,6.613 z M 367.902,579.781 c 1.899,0.41 3.801,0.813 5.727,1.16 0.008,0 0.008,0 0.012,0 0.004,0 0.007,0 0.011,0 4.36,0.782 8.786,1.364 13.258,1.786 1.031,0.101 2.067,0.183 3.102,0.265 1.179,0.09 2.371,0.156 3.558,0.227 0.559,0.027 1.114,0.078 1.672,0.101 0.098,0.004 0.196,0.012 0.293,0.02 0.102,0.004 0.199,0.015 0.301,0.019 0.144,0.008 0.293,0.008 0.437,0.012 0.293,0.012 0.586,0.02 0.883,0.031 1.051,0.039 2.106,0.075 3.16,0.098 0.075,0 0.153,0.004 0.227,0.004 0.574,0.008 1.145,0.016 1.719,0.016 0.062,0 0.125,0.003 0.187,0.007 2.356,0 4.699,-0.07 7.031,-0.168 h 0.008 32.336 10.778 29.66 88.968 35.688 9.535 15.07 23.692 1.707 11.828 c -29.801,48.891 -72.703,88.871 -123.785,115.235 -42.813,22.094 -91.352,34.652 -142.848,34.656 -0.012,0 -0.023,0 -0.035,0 -0.012,0 -0.023,0 -0.035,0 H 330.035 316.133 224.992 116.863 C 102.027,733.25 90,721.223 90,706.387 V 598.504 507.156 493.234 421.172 c 0,-51.375 12.492,-99.805 34.484,-142.543 26.329,-51.172 66.321,-94.16 115.243,-124.02 v 11.914 22.692 27.332 35.633 78.683 34.477 55.433 0.028 c 0,1.211 0.058,2.406 0.089,3.605 0.032,1.203 0.032,2.41 0.086,3.606 0,0.027 0.004,0.054 0.004,0.078 0.024,0.527 0.051,1.055 0.082,1.578 0.121,2.285 0.278,4.555 0.496,6.812 0.008,0.079 0.012,0.153 0.02,0.231 0.25,2.57 0.566,5.125 0.937,7.66 0.004,0.047 0.012,0.094 0.02,0.141 1.387,9.41 3.598,18.547 6.516,27.363 0.062,0.191 0.113,0.395 0.179,0.59 0.074,0.226 0.172,0.445 0.25,0.676 0.938,2.761 1.934,5.5 3.016,8.199 0.121,0.297 0.23,0.598 0.348,0.898 0.054,0.149 0.113,0.301 0.171,0.45 1.149,2.792 2.375,5.546 3.676,8.261 1.297,2.711 2.668,5.387 4.11,8.012 4.324,7.883 9.285,15.367 14.808,22.387 3.684,4.679 7.617,9.148 11.781,13.394 2.082,2.121 4.223,4.188 6.418,6.192 0.012,0.011 0.02,0.015 0.032,0.027 0.156,0.144 0.324,0.277 0.488,0.422 4.219,3.824 8.629,7.437 13.23,10.805 2.391,1.746 4.829,3.429 7.317,5.046 2.484,1.618 5.015,3.172 7.594,4.657 0.187,0.105 0.378,0.211 0.57,0.316 0.738,0.426 1.508,0.805 2.254,1.215 1.617,0.887 3.23,1.789 4.879,2.625 0.238,0.117 0.476,0.242 0.718,0.359 2.633,1.321 5.305,2.567 8.02,3.742 2.711,1.18 5.465,2.286 8.25,3.313 0.027,0.012 0.055,0.019 0.082,0.031 1.355,0.496 2.746,0.926 4.117,1.387 1.375,0.465 2.735,0.965 4.125,1.394 0.117,0.036 0.227,0.079 0.344,0.114 0.137,0.043 0.273,0.074 0.406,0.117 0.567,0.172 1.141,0.32 1.711,0.488 1.137,0.332 2.27,0.668 3.418,0.973 0.184,0.051 0.363,0.098 0.547,0.144 0.027,0.008 0.051,0.012 0.078,0.02 0.641,0.168 1.297,0.316 1.941,0.476 1.196,0.301 2.387,0.61 3.594,0.883 0.481,0.11 0.973,0.188 1.453,0.293" /><path
         id="path56"
         style="fill:rgba(25, 55, 77, 0.9);fill-opacity:1;fill-rule:nonzero;stroke:none"
         d="m 2616.13,145.832 c -1.12,-4.594 -3.09,-8.863 -5.88,-12.695 -0.94,-1.293 -2.02,-2.582 -3.22,-3.832 l -0.53,-0.571 c -2.79,-2.992 -6.08,-5.55 -9.82,-7.211 -14.71,-6.527 -30.47,-3.476 -41.05,6.645 l -0.6,0.566 c -0.95,0.946 -1.86,1.969 -2.79,3.133 -3.3,4.153 -5.61,8.86 -6.85,13.988 -1.57,6.524 -1.32,13.36 0.73,19.77 1.78,5.547 4.78,10.449 8.91,14.582 l 9.75,9.75 1.88,1.887 12.36,12.359 1.74,1.738 1.77,-1.769 12.34,-12.332 1.88,-1.883 9.75,-9.754 c 4.14,-4.14 7.14,-9.058 8.92,-14.621 2.04,-6.406 2.29,-13.234 0.71,-19.75 z m 6.87,50.867 c 0,0.004 0,0.004 0,0.004 0,0.004 -0.01,0.008 -0.01,0.008 l -9.74,9.746 -1.88,1.883 -12.34,12.332 -14.03,14.027 c -2.34,2.344 -6.14,2.344 -8.48,0 l -13.99,-13.996 -12.37,-12.359 -1.88,-1.887 -9.75,-9.754 c -6.96,-6.949 -11.82,-15.195 -14.63,-23.957 -3.36,-10.488 -3.76,-21.719 -1.19,-32.379 1.99,-8.219 5.76,-16.094 11.28,-23.027 1.4,-1.766 2.91,-3.473 4.54,-5.106 0.31,-0.316 0.64,-0.613 0.97,-0.921 11.54,-11.043 26.41,-16.5669 41.28,-16.5669 15.28,0 30.56,5.8279 42.22,17.4879 0.3,0.301 0.58,0.614 0.87,0.918 1.92,1.996 3.68,4.09 5.26,6.274 4.65,6.398 7.88,13.512 9.67,20.902 2.59,10.652 2.19,21.867 -1.16,32.352 -2.8,8.781 -7.67,17.05 -14.64,24.019" /></g></g></svg>